<?xml version="1.0" encoding="UTF-8"?>
<!DOCTYPE svg PUBLIC "-//W3C//DTD SVG 1.1//EN" "http://www.w3.org/Graphics/SVG/1.1/DTD/svg11.dtd">
<!-- Creator: CorelDRAW X7 -->
<svg xmlns="http://www.w3.org/2000/svg" xml:space="preserve" width="20cm" height="20cm" version="1.1" style="shape-rendering:geometricPrecision; text-rendering:geometricPrecision; image-rendering:optimizeQuality; fill-rule:evenodd; clip-rule:evenodd"
viewBox="0 0 20000 20000"
 xmlns:xlink="http://www.w3.org/1999/xlink">
 <defs>
  <style type="text/css">
   <![CDATA[
    .fil0 {fill:#00A5AF}
   ]]>
  </style>
 </defs>
 <g id="Layer_x0020_1">
  <metadata id="CorelCorpID_0Corel-Layer"/>
  <path class="fil0" d="M5179 9613c-62,-14 -55,-130 -53,-178 1,-27 2,-55 3,-82 1,-4 1,-9 1,-14 -9,4 -19,9 -23,12 -32,19 -63,48 -90,74 -42,42 -82,88 -118,135l-14 18 -29 -4c-49,7 -219,40 -244,64l-8 8 -12 3c-21,6 -64,-20 -83,-29 -40,-18 -81,-35 -123,-49 -36,-12 -76,-24 -113,-28 -5,0 -15,-1 -25,0 45,94 146,290 139,338l0 6 -2 4c-18,44 -24,99 -26,146 -2,54 2,109 6,163 2,24 10,85 2,106 -42,112 -190,146 -294,167l-38 8 -9 -37c-59,-234 -117,-465 -192,-694 -42,-130 -45,-266 10,-392 87,-199 289,-324 488,-389 234,-77 501,-87 741,-37 152,31 299,88 429,172 422,274 519,737 436,1209 -78,440 -521,715 -933,785l-111 19 74 -85c153,-175 120,-368 188,-570 13,-39 54,-70 86,-93 40,-29 82,-54 121,-85 26,-20 51,-42 72,-68 35,-44 58,-100 57,-158 -1,-40 -14,-84 -47,-108 -19,-14 -42,-19 -65,-17 -14,1 -28,-5 -36,-17 -1,-1 -2,-3 -3,-5 -1,-1 -1,-2 -2,-3 0,-1 -1,-2 -1,-4 -2,-4 -3,-8 -5,-11 -5,-14 -10,-27 -15,-40 -16,-39 -33,-78 -52,-116 -13,-25 -59,-112 -87,-124zm-1307 125c-341,-1039 2350,-1264 2027,568 -75,420 -503,685 -901,753 162,-186 130,-390 196,-584 21,-64 188,-129 272,-234 123,-154 63,-360 -89,-348 0,0 -104,-292 -187,-319 -47,-5 -9,-279 -22,-275 -80,-38 -259,183 -301,236l-12 -1c0,0 -237,36 -273,77 0,0 -323,-166 -387,-88 0,0 158,316 153,353 -58,140 -10,393 -18,416 -31,81 -134,115 -265,142 -58,-231 -110,-445 -193,-696zm3120 799c-54,43 -111,79 -172,107 -60,28 -124,50 -192,66 -51,11 -102,18 -153,20 -51,3 -104,-1 -157,-10l-34 0c-28,-3 -53,-12 -74,-25 -21,-14 -38,-31 -49,-51 -11,-20 -17,-42 -17,-66 0,-24 7,-47 20,-69 8,-13 13,-24 14,-34 1,-10 1,-22 1,-34 0,-127 1,-245 1,-356 1,-110 1,-220 1,-328 -1,-33 -2,-65 -2,-98 0,-32 -1,-64 -3,-97 0,-14 -1,-27 -3,-41 -3,-15 -8,-28 -17,-40 -26,-35 -36,-69 -30,-102 6,-33 21,-61 45,-84 24,-23 53,-40 88,-51 35,-10 69,-11 102,-2 13,3 27,4 41,2 14,-1 29,-3 43,-5 51,-5 101,-5 151,0 50,4 100,12 151,23 58,13 115,32 168,57 54,25 103,56 148,91 44,36 83,77 116,123 34,46 59,97 77,153 25,76 36,155 33,235 -4,80 -18,158 -44,234 -25,75 -60,146 -104,212 -44,66 -93,123 -149,170zm-516 -1021l0 933c81,-10 154,-30 218,-62 65,-31 119,-71 164,-120 44,-49 78,-106 101,-172 23,-66 35,-140 35,-221 -3,-70 -21,-129 -54,-177 -33,-47 -74,-84 -123,-112 -49,-28 -104,-47 -163,-58 -60,-10 -119,-14 -178,-11zm876 330c-5,-42 6,-79 32,-110 26,-31 60,-49 102,-54 43,-2 79,10 110,37 30,28 46,63 47,105 0,55 0,109 -2,164 -1,55 -1,109 -1,163 1,56 2,110 3,165 1,54 3,108 5,162 4,29 4,58 3,85 -2,27 -8,51 -17,73 -10,21 -24,39 -42,53 -18,14 -41,23 -71,26 -42,2 -77,-9 -107,-35 -30,-26 -46,-60 -49,-102 -4,-65 -7,-130 -7,-192 -1,-63 -1,-125 1,-186 1,-61 1,-120 0,-179 0,-59 -3,-117 -7,-175zm140 -604c42,0 77,15 106,44 29,29 43,64 43,105 0,20 -4,39 -11,58 -8,18 -19,33 -33,46 -15,13 -31,23 -49,31 -18,7 -37,11 -57,11 -39,-2 -72,-16 -100,-44 -28,-29 -43,-63 -44,-102 0,-20 4,-40 12,-58 8,-18 18,-33 31,-47 13,-14 28,-24 46,-32 17,-8 36,-12 56,-12zm856 449c-43,0 -84,-1 -123,-1 -39,-1 -77,0 -116,1 -39,1 -78,2 -117,3 -39,1 -79,3 -118,5 -20,1 -40,-2 -58,-8 -18,-7 -33,-16 -47,-28 -14,-12 -25,-26 -33,-42 -9,-16 -13,-33 -14,-52 -3,-40 9,-74 34,-104 26,-29 59,-44 101,-45 91,-3 182,-5 271,-9 89,-3 179,-1 269,5 43,4 84,13 124,27 39,15 73,35 100,61 27,26 45,57 56,94 10,36 6,76 -11,121 -12,29 -26,56 -43,83 -16,26 -34,52 -53,77 -50,67 -99,135 -148,202 -49,67 -95,137 -137,209 -17,29 -32,59 -47,90 -15,30 -27,64 -36,100 19,-4 35,-6 50,-8 16,-2 31,-4 45,-6 65,-10 129,-20 194,-29 65,-10 130,-19 194,-28 21,-4 42,-3 62,1 20,5 37,12 53,22 16,11 29,24 39,40 10,17 17,35 19,55 5,40 -4,74 -28,103 -24,30 -59,47 -103,53 -71,10 -141,21 -210,31 -68,11 -138,21 -210,30 -59,10 -120,15 -181,15 -40,0 -76,-7 -106,-21 -30,-14 -54,-33 -73,-57 -19,-23 -33,-52 -41,-84 -8,-33 -10,-68 -7,-105 17,-79 42,-154 76,-225 33,-70 70,-138 111,-204 40,-65 83,-128 129,-189 46,-61 90,-122 133,-183zm851 186c76,-55 154,-97 232,-125 78,-27 152,-42 224,-44 72,-1 139,10 202,33 62,24 118,61 165,110 48,49 87,110 116,183 28,72 45,157 50,253 1,21 2,47 4,77 2,30 2,61 2,95 0,33 -2,66 -6,98 -5,32 -13,61 -25,85 -12,25 -29,45 -51,60 -22,14 -50,20 -85,17 -22,-2 -41,-7 -59,-17 -17,-9 -32,-22 -44,-37 -12,-15 -20,-33 -26,-52 -6,-20 -7,-41 -5,-62 3,-40 6,-80 8,-120 1,-41 1,-81 -1,-121 -6,-77 -23,-139 -53,-185 -29,-46 -65,-78 -107,-96 -43,-19 -89,-26 -138,-20 -50,6 -98,21 -143,47 -46,25 -87,59 -124,100 -37,42 -63,90 -79,144 -9,33 -15,67 -19,104 -4,36 -6,74 -4,113 1,20 -2,40 -10,58 -7,19 -17,35 -29,50 -13,14 -28,25 -45,33 -18,9 -37,13 -57,13 -20,1 -40,-2 -58,-8 -18,-7 -33,-17 -47,-30 -14,-13 -25,-28 -33,-45 -8,-17 -13,-35 -14,-56 -4,-80 -7,-159 -11,-238 -3,-78 -6,-158 -10,-239 -4,-87 -8,-174 -12,-260 -3,-87 -6,-173 -10,-260 0,-20 0,-40 -1,-60 0,-20 0,-39 0,-59 0,-41 14,-76 42,-105 28,-28 63,-41 103,-40 42,0 77,14 104,41 28,28 42,63 42,106 2,76 4,151 6,227 1,76 3,153 6,232zm1976 494c-22,20 -44,38 -66,56 -21,18 -43,36 -64,53 -47,38 -98,70 -152,96 -53,26 -110,45 -171,58 -51,8 -101,7 -150,-1 -49,-8 -95,-27 -138,-57 -20,-12 -37,-27 -54,-44 -16,-17 -30,-35 -43,-54 -13,-19 -24,-39 -33,-60 -8,-21 -15,-43 -21,-67 -9,-38 -13,-77 -13,-116 1,-39 5,-78 11,-118 9,-47 24,-93 43,-137 20,-44 43,-86 69,-127 19,-27 40,-53 64,-78 23,-24 47,-48 73,-69 54,-44 114,-79 180,-105 37,-14 78,-24 124,-31 46,-6 92,-10 137,-11 46,0 91,3 135,9 44,6 83,15 117,28 35,12 69,29 104,51 34,21 64,46 88,73 24,28 42,58 52,90 11,32 11,66 0,101 -11,39 -15,78 -13,117 2,38 5,76 9,115 6,59 15,116 27,173 13,56 29,112 49,169 4,15 8,28 14,41 7,18 7,37 2,58 -6,21 -15,41 -27,59 -13,19 -28,35 -47,50 -19,15 -37,25 -55,31 -18,5 -36,7 -55,6 -19,-2 -36,-7 -52,-16 -16,-8 -29,-19 -41,-33 -12,-13 -21,-29 -26,-47 -13,-40 -24,-79 -34,-120 -10,-40 -21,-79 -32,-119 -3,-4 -4,-8 -6,-12 -1,-3 -2,-7 -5,-12zm-596 -157c3,11 4,22 5,33 2,11 4,22 7,33 14,50 47,68 100,56 14,-2 27,-5 42,-9 14,-3 28,-8 41,-13 46,-23 88,-50 124,-82 36,-32 70,-67 101,-103 56,-58 90,-110 103,-154 13,-44 10,-78 -10,-102 -19,-25 -51,-38 -97,-40 -46,-2 -99,10 -160,35 -35,15 -68,34 -98,58 -31,24 -57,51 -81,81 -23,31 -41,64 -55,99 -13,35 -21,71 -22,108zm2182 113c-31,57 -66,107 -108,151 -41,44 -87,84 -139,119 -43,28 -88,50 -136,67 -47,16 -97,27 -149,34 -39,4 -77,3 -113,-1 -36,-4 -73,-12 -110,-24 -17,-6 -33,-13 -49,-20 -15,-8 -30,-17 -46,-26 -60,-44 -109,-95 -146,-154 -42,-70 -69,-142 -83,-217 -11,-71 -11,-141 0,-210 10,-67 31,-132 61,-193 15,-31 32,-62 53,-91 20,-30 43,-57 69,-83 16,-16 32,-31 49,-46 17,-15 35,-28 54,-41 30,-20 65,-37 105,-51 41,-14 83,-25 126,-33 43,-8 85,-13 127,-14 41,-1 79,3 111,10 39,9 75,22 110,37 34,15 67,35 99,60 61,44 110,101 147,171 25,44 42,90 50,138 8,48 10,96 6,144 -5,48 -15,95 -31,142 -15,47 -35,91 -57,131zm-559 -506c-62,24 -114,69 -156,136 -32,51 -51,104 -56,158 -6,53 5,108 31,163 27,54 62,89 105,104 43,14 87,15 134,1 46,-13 90,-38 133,-73 42,-36 76,-76 102,-120 34,-58 49,-115 46,-170 -4,-55 -20,-101 -50,-139 -30,-38 -70,-63 -121,-76 -51,-13 -107,-8 -168,16zm1594 506c-48,88 -105,167 -169,235 -65,68 -131,120 -199,155 -69,35 -136,50 -203,46 -66,-5 -125,-37 -177,-97 -55,-62 -92,-136 -111,-222 -20,-86 -28,-176 -23,-271 4,-95 18,-190 40,-287 23,-96 49,-186 78,-270 11,-38 34,-67 71,-85 36,-19 76,-23 119,-13 40,10 69,32 87,64 19,33 22,67 10,104 -53,154 -84,311 -92,470 -6,112 -2,193 12,243 14,49 34,73 63,71 28,-1 62,-26 102,-74 40,-48 84,-114 131,-197 29,-51 55,-103 79,-155 24,-53 46,-107 65,-162 6,-15 11,-29 15,-44 4,-15 10,-29 17,-42 17,-31 42,-53 73,-67 32,-14 65,-17 100,-10 36,8 64,24 84,48 20,24 30,54 31,90 3,78 12,154 29,230 17,76 46,149 86,220 13,23 26,44 41,64 15,21 33,40 54,58 49,37 97,35 144,-7 28,-23 51,-51 67,-82 16,-31 29,-63 36,-96 45,-161 37,-322 -23,-482 -9,-22 -20,-43 -33,-63 -13,-20 -26,-40 -38,-61 -23,-35 -30,-70 -21,-106 9,-35 34,-62 73,-80 37,-18 76,-22 116,-10 40,11 70,35 91,71 16,26 31,52 46,79 16,28 29,55 40,83 14,30 25,60 33,91 9,31 16,62 23,92 6,32 10,63 12,93 2,31 4,62 5,94 1,88 -11,175 -36,260 -8,32 -18,63 -32,94 -13,30 -30,59 -49,88 -23,32 -48,63 -76,93 -28,29 -62,55 -102,78 -22,14 -47,25 -73,33 -26,7 -51,13 -77,19 -59,10 -116,6 -171,-13 -46,-15 -87,-35 -123,-61 -37,-25 -70,-54 -100,-88 -30,-33 -57,-68 -81,-106 -23,-38 -45,-76 -64,-115zm1977 44c-23,20 -45,38 -66,56 -22,18 -43,36 -65,53 -47,38 -98,70 -151,96 -54,26 -111,45 -172,58 -51,8 -101,7 -150,-1 -49,-8 -95,-27 -138,-57 -19,-12 -37,-27 -53,-44 -17,-17 -31,-35 -43,-54 -14,-19 -25,-39 -33,-60 -9,-21 -16,-43 -22,-67 -9,-38 -13,-77 -12,-116 0,-39 4,-78 11,-118 9,-47 23,-93 43,-137 20,-44 42,-86 68,-127 20,-27 41,-53 64,-78 23,-24 48,-48 74,-69 54,-44 114,-79 179,-105 37,-14 79,-24 125,-31 45,-6 91,-10 137,-11 45,0 90,3 134,9 44,6 83,15 117,28 35,12 70,29 104,51 35,21 64,46 88,73 25,28 42,58 53,90 11,32 10,66 -1,101 -10,39 -14,78 -13,117 2,38 5,76 10,115 5,59 14,116 27,173 12,56 29,112 49,169 3,15 8,28 13,41 7,18 8,37 2,58 -6,21 -15,41 -27,59 -12,19 -28,35 -47,50 -18,15 -37,25 -55,31 -18,5 -36,7 -55,6 -18,-2 -35,-7 -51,-16 -16,-8 -30,-19 -42,-33 -12,-13 -20,-29 -26,-47 -12,-40 -24,-79 -34,-120 -10,-40 -21,-79 -32,-119 -2,-4 -4,-8 -5,-12 -1,-3 -3,-7 -5,-12zm-596 -157c2,11 4,22 5,33 1,11 3,22 7,33 13,50 46,68 99,56 14,-2 28,-5 42,-9 14,-3 28,-8 41,-13 47,-23 88,-50 124,-82 36,-32 70,-67 102,-103 55,-58 89,-110 102,-154 13,-44 10,-78 -9,-102 -19,-25 -52,-38 -98,-40 -45,-2 -99,10 -160,35 -35,15 -67,34 -98,58 -30,24 -57,51 -80,81 -23,31 -42,64 -55,99 -14,35 -21,71 -22,108zm-2286 -213c7,-41 15,-83 25,-124 21,-92 47,-183 78,-273 14,-49 45,-86 91,-109 46,-23 96,-28 147,-16 48,13 87,40 112,84 24,42 28,89 12,136 -51,148 -81,302 -89,459 -3,66 -7,166 11,230 2,7 12,40 21,43 23,-2 61,-45 74,-61 49,-58 91,-125 127,-191 28,-50 54,-100 78,-152 24,-52 45,-104 63,-158l1 -1c5,-13 9,-27 13,-40 5,-19 12,-36 21,-52 22,-38 52,-66 92,-84 40,-18 82,-21 125,-12 41,10 78,28 106,61 27,33 39,72 40,114 2,75 12,150 28,223 17,74 45,144 82,209 12,21 25,42 39,61 13,19 29,35 46,50 34,25 61,22 93,-6 24,-20 43,-43 58,-71 14,-27 25,-56 33,-86l0 -1c42,-155 34,-307 -22,-457 -9,-20 -19,-39 -30,-56 -13,-21 -26,-41 -38,-61 -27,-42 -38,-89 -25,-137 12,-51 48,-86 94,-107 46,-22 95,-27 144,-13 50,14 89,45 114,89 16,27 32,54 47,81 16,28 30,57 42,87 14,31 26,63 35,96 8,31 16,62 23,94l0 1c6,32 10,65 13,98 2,31 4,63 5,95 1,92 -12,184 -37,272 -9,34 -20,67 -34,99 -15,33 -33,64 -53,94 -24,35 -51,68 -80,98 -32,34 -70,62 -110,85 -26,16 -53,29 -83,37 -26,8 -53,14 -80,20l-2 0c-64,12 -129,7 -190,-14 -47,-16 -92,-37 -133,-66 -39,-27 -75,-58 -107,-94 -31,-35 -60,-72 -84,-112 -12,-18 -22,-36 -33,-54 -40,64 -86,125 -138,180 -61,65 -131,123 -210,163 -70,36 -145,56 -223,50 -84,-5 -151,-47 -206,-110 -60,-69 -99,-150 -119,-239 -22,-92 -29,-187 -24,-282 0,-10 1,-21 2,-31 -5,23 -12,46 -20,69 -16,48 -36,94 -60,138 -31,57 -69,111 -113,158 -44,47 -94,89 -147,125 -45,30 -94,54 -145,71 -51,18 -103,30 -157,37l-1 0c-41,4 -81,4 -122,-1 -40,-4 -80,-13 -118,-26 -19,-6 -37,-14 -54,-23 -16,-8 -32,-17 -48,-26l-2 -1 -2 -2c-62,-45 -114,-100 -156,-165l0 0c-43,-72 -73,-149 -88,-231 -12,-74 -12,-149 0,-223 11,-71 32,-140 64,-204 16,-34 34,-66 56,-97 22,-32 47,-61 74,-88 16,-17 33,-33 51,-48 19,-16 38,-31 58,-43 35,-25 74,-43 114,-57 43,-15 87,-26 131,-35 44,-8 89,-13 134,-14 40,-1 82,2 122,12 39,9 78,22 116,38 38,17 74,39 107,65 67,49 119,111 158,183 26,47 45,98 54,151 6,33 9,66 9,98zm-834 259c17,36 43,70 82,84 36,12 73,12 109,1 44,-13 84,-37 119,-66 37,-31 69,-67 93,-109 27,-45 44,-95 41,-147 -3,-43 -15,-83 -42,-117 -25,-33 -59,-52 -99,-62 -48,-13 -98,-3 -144,14 -59,23 -102,67 -136,120 -27,43 -46,90 -51,141 -4,49 7,97 28,141zm-4738 -488c7,-22 18,-43 34,-62 33,-40 77,-62 128,-68l1 0 2 0c52,-2 99,13 138,48 40,35 60,81 61,133l0 1c0,55 0,110 -2,165 -1,54 -1,108 -1,161 1,55 2,110 3,165 1,53 3,107 5,160 3,30 5,60 3,90 -2,30 -8,60 -21,87 -12,27 -30,50 -53,68 -26,21 -58,31 -91,35l-1 0 -2 0c-50,3 -97,-12 -136,-45 -38,-34 -58,-78 -62,-129 -4,-65 -7,-130 -7,-195 -1,-62 -1,-124 1,-186 1,-60 1,-119 0,-179 0,-1 0,-2 0,-3 -7,51 -19,101 -36,149 -26,79 -62,153 -108,222 -44,66 -96,127 -157,179l-1 1c-55,44 -115,81 -180,111 -64,30 -131,53 -200,69 -53,12 -106,19 -160,21 -54,3 -109,-1 -162,-10l-33 0 -2 0c-33,-4 -64,-14 -91,-31 -27,-17 -48,-38 -63,-66 -15,-26 -22,-55 -22,-85 0,-32 9,-62 26,-90l0 -1c3,-4 7,-12 8,-17 1,-9 1,-19 1,-29 0,-119 1,-237 1,-356 1,-109 1,-219 1,-327 -1,-33 -2,-66 -2,-99 0,-31 -1,-63 -3,-94l0 -2 0 -1c0,-12 -1,-24 -3,-35 -1,-8 -4,-16 -9,-23 -29,-38 -46,-84 -37,-132 8,-41 26,-76 56,-105 30,-29 65,-49 104,-61 41,-12 83,-14 123,-3 9,2 18,3 27,2 14,-2 28,-4 42,-6l2 0 1 0c52,-5 105,-5 158,0 52,4 104,13 155,24 61,13 121,33 177,60 56,26 108,58 155,96 48,38 90,82 125,131 36,50 63,105 82,163 11,33 19,66 25,99zm-803 -217l0 848c55,-10 110,-27 161,-52 57,-27 108,-64 151,-111 42,-46 73,-100 94,-159 23,-66 32,-136 32,-206 -3,-55 -16,-109 -47,-155 -29,-42 -65,-75 -110,-100 -47,-27 -97,-44 -150,-53 -44,-8 -87,-12 -131,-12zm976 -353c53,0 98,19 135,56 36,37 54,82 54,133 0,25 -5,50 -15,74 -10,22 -24,43 -42,60 -18,16 -38,29 -61,38 -23,9 -47,14 -72,14l-1 0c-50,-2 -93,-21 -127,-56 -36,-35 -55,-79 -56,-129l0 -1c0,-26 5,-50 15,-74 10,-22 23,-41 39,-59 17,-17 36,-31 58,-41 23,-10 48,-15 73,-15zm779 528c-16,0 -31,0 -46,0 -38,-1 -76,0 -115,1 -39,1 -78,2 -117,3 -39,1 -78,3 -117,5 -25,2 -50,-2 -74,-11 -22,-8 -42,-20 -59,-35 -18,-15 -32,-33 -42,-53 -12,-21 -18,-45 -19,-69 -3,-49 12,-94 44,-132 34,-39 79,-58 130,-59 90,-3 180,-5 270,-9 92,-3 183,-1 274,5 46,4 91,14 135,30 42,16 81,38 113,70 33,30 55,68 67,111 14,49 7,99 -11,147l-1 1 0 1c-13,30 -28,59 -46,87 -17,27 -35,54 -55,79 -49,68 -99,135 -148,203 -48,66 -93,134 -134,205 -16,29 -32,58 -46,87 -5,11 -10,23 -15,34 11,-1 22,-3 32,-4 65,-10 130,-20 194,-30 65,-10 130,-19 194,-28 26,-4 52,-3 77,2 23,6 46,15 66,28 21,13 38,31 51,52 14,22 22,46 24,71 7,49 -4,95 -36,134 -33,40 -78,60 -128,67 -70,9 -140,20 -209,31 -70,11 -140,21 -211,30 -62,10 -124,15 -187,15 -42,0 -84,-7 -123,-25 -34,-16 -64,-38 -87,-68 -24,-29 -40,-63 -49,-100 -9,-39 -11,-78 -8,-118l1 -2 0 -3c17,-80 43,-158 79,-233 33,-71 71,-141 113,-208 41,-66 84,-130 131,-192 30,-40 59,-80 88,-120zm1753 1028c-27,-1 -52,-8 -75,-20 -22,-13 -41,-28 -56,-48 -16,-20 -27,-42 -33,-66 -8,-25 -10,-51 -7,-77 3,-39 6,-78 8,-118 1,-39 1,-77 -1,-116 -4,-56 -16,-118 -46,-166 -23,-35 -52,-65 -90,-82 -38,-16 -77,-21 -118,-16 -45,5 -88,19 -128,42 -43,23 -81,55 -113,92 -33,37 -57,80 -70,128 -9,32 -15,64 -18,97 -4,36 -5,72 -5,107 2,26 -2,51 -12,75 -8,22 -21,43 -36,61 -16,18 -36,33 -58,43 -23,12 -47,17 -73,17 -25,1 -49,-2 -73,-11 -22,-8 -43,-21 -61,-38 -17,-16 -30,-35 -41,-56 -11,-23 -17,-47 -18,-72 -4,-79 -7,-159 -11,-238 -3,-80 -6,-160 -10,-239 -4,-87 -8,-174 -12,-261 -3,-86 -6,-173 -10,-260l0 -1c0,-20 0,-39 -1,-59 0,-20 0,-40 0,-60 0,-51 17,-97 54,-133 36,-36 81,-54 131,-52 51,0 97,17 133,53 36,36 53,83 53,133 2,76 4,151 6,227 1,53 2,106 4,159 57,-35 117,-66 180,-88 76,-27 156,-45 237,-47 74,-1 147,10 217,36 68,26 129,66 180,119 55,56 95,123 124,196 33,84 48,176 53,266 1,25 2,51 4,77 2,32 2,64 2,97 0,34 -2,69 -7,103 -4,34 -13,67 -28,98 -15,30 -36,56 -65,75 -33,22 -72,27 -110,23zm1133 -318c-8,6 -15,12 -22,18 -21,18 -43,35 -65,53 -49,40 -102,74 -159,101 -58,28 -119,48 -181,61l-1 0 -1 0c-54,9 -109,9 -163,-1 -56,-9 -107,-31 -153,-62 -22,-14 -42,-31 -60,-50 -18,-18 -34,-38 -48,-60 -15,-21 -27,-43 -37,-67 -9,-24 -17,-48 -23,-73 -10,-41 -14,-83 -14,-125 1,-42 5,-83 12,-125 10,-50 25,-99 46,-146 20,-46 44,-90 71,-132l1 -1 0 -1c21,-29 43,-56 67,-82 25,-26 50,-51 78,-73 57,-47 121,-84 190,-111l1 -1c43,-15 87,-25 132,-32 47,-7 95,-11 143,-12 47,0 94,3 141,9 42,6 84,16 124,30 39,14 77,33 112,55 36,22 69,49 97,81 27,30 48,65 60,103 14,42 13,84 0,125 -9,34 -13,69 -11,104 2,37 5,75 9,113 5,56 14,113 26,168 13,56 29,111 48,164l1 3 0 2c3,11 7,22 11,33l1 1 0 1c11,27 11,56 3,83 -7,26 -18,50 -32,71 -15,23 -34,43 -55,60 -21,16 -43,29 -68,37 -23,7 -47,10 -71,7 -23,-2 -46,-8 -67,-19 -20,-11 -37,-25 -52,-42 -16,-18 -27,-39 -35,-62 -12,-40 -24,-81 -34,-122 -7,-28 -15,-56 -22,-84zm-538 -229c2,10 4,21 5,32 1,8 3,17 5,25l1 1c8,31 22,35 52,28l1 0 1 -1c13,-2 26,-4 39,-8 12,-2 23,-6 35,-11 41,-20 79,-45 113,-75 35,-31 68,-64 98,-99l1 -1c34,-36 79,-89 93,-138 6,-20 12,-49 -2,-66 -15,-19 -46,-24 -68,-25 -47,-2 -99,14 -142,32 -32,14 -62,31 -90,53 -27,21 -52,46 -73,74 -20,27 -37,56 -49,88 -12,29 -18,60 -20,91zm5135 229c-7,6 -14,12 -22,18 -21,18 -43,35 -65,53 -49,40 -102,74 -159,101 -57,28 -118,48 -181,61l-1 0 -1 0c-54,9 -109,9 -163,-1 -55,-9 -107,-31 -153,-62 -22,-14 -42,-31 -60,-50 -18,-18 -34,-38 -48,-60 -14,-21 -27,-43 -37,-67 -9,-24 -17,-48 -23,-73 -9,-41 -14,-83 -13,-125 0,-42 4,-83 11,-125 10,-50 25,-99 46,-146 21,-46 45,-90 72,-132l0 -1 1 -1c20,-29 43,-56 67,-82 24,-26 50,-51 77,-73 58,-47 122,-84 190,-111l1 -1c43,-15 88,-25 133,-32 47,-7 95,-11 142,-12 47,0 94,3 141,9 42,6 84,16 125,30 39,14 76,33 111,55 36,22 69,49 97,81 27,30 48,65 61,103 14,42 13,84 -1,125 -8,34 -12,69 -11,104 2,37 5,75 9,113 6,56 15,113 27,168 12,56 28,111 47,164l1 3 1 2c2,11 6,22 11,33l0 1 1 1c10,27 10,56 3,83 -7,26 -18,50 -33,71 -15,23 -33,43 -55,60 -20,16 -43,29 -68,37 -23,7 -46,10 -70,7 -24,-2 -46,-8 -67,-19 -20,-11 -38,-25 -53,-42 -16,-18 -27,-39 -34,-62 -13,-40 -24,-81 -35,-122 -7,-28 -14,-56 -22,-84zm-537 -229c2,10 3,21 5,32 0,8 2,17 5,25l0 1c8,31 23,35 52,28l2 0 1 -1c13,-2 26,-4 39,-8 11,-2 23,-6 34,-11 41,-20 79,-45 113,-75 35,-31 68,-64 99,-99l1 -1c34,-36 78,-89 93,-138 5,-20 11,-49 -3,-66 -15,-19 -45,-24 -68,-25 -47,-2 -99,14 -142,32 -32,14 -62,31 -89,53 -28,21 -52,46 -73,74 -21,27 -38,56 -50,88 -11,29 -18,60 -19,91z"/>
 </g>
</svg>
